<?xml version="1.0" encoding="utf-8"?>
<!-- Generator: Adobe Illustrator 24.2.1, SVG Export Plug-In . SVG Version: 6.00 Build 0)  -->
<svg version="1.1" id="图层_1" xmlns="http://www.w3.org/2000/svg" xmlns:xlink="http://www.w3.org/1999/xlink" x="0px" y="0px"
	 viewBox="0 0 64 64" style="enable-background:new 0 0 64 64;" xml:space="preserve">
<style type="text/css">
	.st0{fill:#BE835B;}
</style>
<path class="st0" d="M59.2,39H15.8c-0.5,0-0.9,0.1-1.4,0.4s-1,0.6-1.4,1.1s-0.8,1.1-1.1,1.8s-0.4,1.5-0.4,2.4s0.1,1.7,0.3,2.4
	s0.5,1.4,0.9,2s0.8,1,1.4,1.4c0.5,0.3,1.1,0.5,1.8,0.5h43.4c-0.5-0.5-0.9-1.1-1.3-1.7c-0.3-0.5-0.6-1.2-0.9-1.9
	c-0.3-0.8-0.4-1.6-0.4-2.6c0-1.1,0.1-2,0.4-2.7s0.6-1.3,0.9-1.8C58.3,39.8,58.7,39.3,59.2,39z M59.2,56.1c0,0.7-0.5,1.1-1.4,1.1H12
	c-1.4,0-2.6-0.3-3.6-0.9S6.7,54.9,6,53.9c-0.6-1-1-2.2-1.3-3.7c-0.3-1.4-0.4-2.9-0.4-4.6V9.2c0-3.2,0.9-5.6,2.6-7S11.1,0,14.2,0h2.1
	h4.3h5.8c2.1,0,4.3,0,6.6,0s4.4,0,6.6,0h5.9h4.4h2.2c1.2,0,2.2,0.2,3.1,0.7s1.6,1.2,2.2,2c0.6,0.9,1,1.9,1.3,3s0.5,2.4,0.5,3.8v25.4
	c-8,0-15.2,0-21.6-0.1h-8c-2.7,0-5.1,0-7.2,0s-3.9,0-5.2,0h-2.3c-0.9,0-1.7,0.3-2.6,0.8c-0.8,0.5-1.6,1.2-2.3,2.1
	c-0.7,0.9-1.2,1.9-1.6,3.1C8,42,7.8,43.2,7.8,44.5c0,1.6,0.2,3,0.7,4.3c0.4,1.3,1,2.4,1.7,3.2s1.5,1.6,2.4,2
	c0.9,0.5,1.7,0.7,2.5,0.7H58c0.3,0,0.6,0.1,0.9,0.3S59.2,55.7,59.2,56.1z M32.2,0v24.3l4.8-6.8l4.8,6.8V0H32.2z"/>
</svg>
